{"title":"Odd Thomas XVID.avi","uid":8603044,"size":445214964,"categoryP":"video","categoryS":"movies","magnet":"?xt=urn:btih:290496994794cc591f68dce80917cbc9de5e07e4&amp;dn=Odd+Thomas+XVID.avi&amp;tr=udp%3A%2F%2Ftracker.openbittorrent.com%3A80&amp;tr=udp%3A%2F%2Fopen.demonii.com%3A1337&amp;tr=udp%3A%2F%2Ftracker.coppersurfer.tk%3A6969&amp;tr=udp%3A%2F%2Fexodus.desync.com%3A6969","seeders":1,"leechers":0,"uploader":"globeplus","files":-1,"time":1371933410,"description":"Odd Thomas XVID.avi\n\nGeneral\n\nFormat                                   : AVI\nFormat/Info                              : Audio Video Interleave\nFile size                                : 425 MiB\nDuration                                 : 1h 32mn\nOverall bit rate                         : 640 Kbps\nWriting application                      : Lavf52.57.1\n\nVideo\n\nID                                       : 0\nFormat                                   : xvid\nCodec ID                                 : xvid\nDuration                                 : 1h 32mn\nBit rate                                 : 500 Kbps\nWidth                                    : 640 pixels\nHeight                                   : 272 pixels\nDisplay aspect ratio                     : 2.35:1\nFrame rate                               : 23.916 fps\nBits/(Pixel*Frame)                       : 0.120\nStream size                              : 331 MiB (78%)\n\nAudio\n\nID                                       : 1\nFormat                                   : MPEG Audio\nFormat version                           : Version 1\nFormat profile                           : Layer 3\nMode                                     : Joint stereo\nMode extension                           : MS Stereo\nCodec ID                                 : 55\nCodec ID/Hint                            : MP3\nDuration                                 : 1h 32mn\nBit rate mode                            : Constant\nBit rate                                 : 128 Kbps\nChannel(s)                               : 2 channels\nSampling rate                            : 48.0 KHz\nCompression mode                         : Lossy\nStream size                              : 84.9 MiB (20%)\nAlignment                                : Aligned on interleaves\nInterleave, duration                     : 24 ms (0.57 video frame)\nWriting library                          : LAME3.98.2\n\n\nSTORYLINE :\n\nIn a California desert town, a short-order cook with clairvoyant abilities encounters a mysterious man with a link to dark, threatening forces. \n\n\n\n* enjoy ...","torrent":{"xt":"urn:btih:290496994794cc591f68dce80917cbc9de5e07e4","amp;dn":"Odd+Thomas+XVID.avi","amp;tr":["udp%3A%2F%2Ftracker.openbittorrent.com%3A80","udp%3A%2F%2Fopen.demonii.com%3A1337","udp%3A%2F%2Ftracker.coppersurfer.tk%3A6969","udp%3A%2F%2Fexodus.desync.com%3A6969"],"infoHash":"290496994794cc591f68dce80917cbc9de5e07e4","infoHashBuffer":{"type":"Buffer","data":[41,4,150,153,71,148,204,89,31,104,220,232,9,23,203,201,222,94,7,228]},"announce":[],"urlList":[]}}